<svg width="32" height="134" viewBox="0 0 32 134" fill="none" xmlns="http://www.w3.org/2000/svg">
<path d="M7 13.266L15.262 8.472V4.902L7 4.902V0.21L30.8 0.21V9.73C30.8 11.9287 30.0293 13.7987 28.488 15.34C26.9467 16.8813 25.088 17.652 22.912 17.652C21.4387 17.652 20.0673 17.2327 18.798 16.394C17.5513 15.5553 16.6107 14.4447 15.976 13.062L7 18.332V13.266ZM26.414 4.902L19.376 4.902V9.73C19.376 10.614 19.716 11.3733 20.396 12.008C21.0987 12.6427 21.9373 12.96 22.912 12.96C23.8867 12.96 24.714 12.6427 25.394 12.008C26.074 11.3733 26.414 10.614 26.414 9.73V4.902ZM6.524 29.8028C6.524 27.1508 7.272 24.9748 8.768 23.2748C10.264 21.5748 12.27 20.7248 14.786 20.7248H30.8V25.3828H15.16C13.9133 25.3828 12.9273 25.7341 12.202 26.4368C11.4767 27.1621 11.114 28.2841 11.114 29.8028C11.114 31.3214 11.4767 32.4321 12.202 33.1348C12.9273 33.8601 13.9133 34.2228 15.16 34.2228H30.8V38.9148H14.786C12.27 38.9148 10.264 38.0648 8.768 36.3648C7.272 34.6648 6.524 32.4774 6.524 29.8028Z" fill="#828282"/>
<path d="M0.2 51.6416H31.48V56.0276H0.2L0.2 51.6416ZM11.488 73.6325V83.6625H7V68.9405H30.8L30.8 83.4925H26.312L26.312 73.6325H21.246V82.6425H16.826V73.6325H11.488ZM30.8 100.74V105.432H7V101.862L21.552 91.6618H7V86.9698H30.8V90.5398L16.282 100.74H30.8ZM19.784 133.205H17.948C14.548 133.205 11.794 132.117 9.686 129.941C7.578 127.765 6.524 124.954 6.524 121.509C6.524 117.837 7.714 114.788 10.094 112.363C12.4967 109.96 15.4207 108.759 18.866 108.759C22.334 108.759 25.2693 109.949 27.672 112.329C30.0747 114.731 31.276 117.701 31.276 121.237C31.276 123.458 30.766 125.487 29.746 127.323C28.7487 129.159 27.4113 130.587 25.734 131.607L23.422 127.595C24.3967 127.028 25.19 126.167 25.802 125.011C26.414 123.877 26.72 122.608 26.72 121.203C26.72 118.936 25.972 117.066 24.476 115.593C23.0027 114.142 21.1327 113.417 18.866 113.417C16.622 113.417 14.7633 114.153 13.29 115.627C11.8393 117.123 11.114 119.095 11.114 121.543C11.114 123.356 11.5107 124.852 12.304 126.031C13.12 127.232 14.2307 128.048 15.636 128.479V121.271H19.784V133.205Z" fill="black"/>
</svg>
